<svg xmlns="http://www.w3.org/2000/svg" viewBox="0 0 800 1200" preserveAspectRatio="xMidYMid slice">
  <defs>
    <linearGradient id="city" x1="0" y1="0" x2="0" y2="1">
      <stop offset="0%" stop-color="#1e293b" />
      <stop offset="100%" stop-color="#0f172a" />
    </linearGradient>
  </defs>
  <rect width="800" height="1200" fill="url(#city)" />
  <g fill="#fbbf24" opacity="0.9">
    <rect x="80" y="700" width="20" height="20" />
    <rect x="120" y="600" width="20" height="20" />
    <rect x="160" y="640" width="20" height="20" />
    <rect x="200" y="560" width="20" height="20" />
    <rect x="240" y="620" width="20" height="20" />
    <rect x="280" y="540" width="20" height="20" />
    <rect x="320" y="640" width="20" height="20" />
    <rect x="360" y="580" width="20" height="20" />
    <rect x="400" y="500" width="20" height="20" />
    <rect x="440" y="580" width="20" height="20" />
    <rect x="480" y="640" width="20" height="20" />
    <rect x="520" y="560" width="20" height="20" />
    <rect x="560" y="620" width="20" height="20" />
    <rect x="600" y="540" width="20" height="20" />
    <rect x="640" y="600" width="20" height="20" />
    <rect x="680" y="660" width="20" height="20" />
  </g>
  <g fill="white" opacity="0.9">
    <rect x="100" y="900" width="30" height="30" />
    <rect x="200" y="850" width="30" height="30" />
    <rect x="300" y="920" width="30" height="30" />
    <rect x="400" y="880" width="30" height="30" />
    <rect x="500" y="900" width="30" height="30" />
    <rect x="600" y="850" width="30" height="30" />
    <rect x="700" y="900" width="30" height="30" />
  </g>
</svg>
